<?xml version="1.0" standalone="no"?>
<!DOCTYPE svg PUBLIC "-//W3C//DTD SVG 20010904//EN"
 "http://www.w3.org/TR/2001/REC-SVG-20010904/DTD/svg10.dtd">
<svg version="1.0" xmlns="http://www.w3.org/2000/svg"
 width="520.000000pt" height="520.000000pt" viewBox="0 0 520.000000 520.000000"
 preserveAspectRatio="xMidYMid meet">
<metadata>
Created by potrace 1.14, written by Peter Selinger 2001-2017
</metadata>
<g transform="translate(0.000000,520.000000) scale(0.100000,-0.100000)"
fill="#000000" stroke="none">
<path d="M2530 5187 c-58 -21 -2092 -1197 -2128 -1231 -19 -17 -43 -49 -55
-71 l-22 -40 0 -1245 0 -1245 22 -40 c11 -22 34 -52 50 -67 23 -22 1284 -758
1299 -758 2 0 4 358 4 795 l0 795 -335 0 -335 0 0 210 0 210 905 0 905 0 0
-210 0 -210 -330 0 -330 0 0 -937 1 -938 163 -93 c171 -97 208 -112 266 -112
57 1 93 19 363 174 l257 148 -55 45 c-52 43 -138 148 -184 224 l-21 37 191
111 c106 61 195 111 198 111 4 0 15 -13 24 -29 32 -54 121 -144 181 -183 103
-66 94 -68 356 83 220 127 231 135 225 159 -19 75 -105 137 -317 230 -336 146
-431 202 -539 317 -119 127 -170 263 -170 458 0 125 16 196 64 295 38 79 156
201 237 247 131 75 302 106 492 92 191 -14 321 -71 443 -193 45 -44 95 -104
113 -133 l31 -51 -181 -116 c-99 -64 -183 -116 -188 -116 -5 0 -18 15 -29 34
-30 47 -112 122 -157 142 -59 26 -188 24 -239 -3 -81 -43 -115 -98 -115 -186
1 -131 72 -193 365 -317 327 -139 495 -255 590 -408 21 -34 40 -62 43 -62 13
0 189 107 219 133 19 17 44 49 56 71 l22 41 0 1245 0 1245 -22 40 c-12 22 -36
54 -55 71 -36 34 -2068 1209 -2127 1230 -46 17 -106 17 -151 1z"/>
</g>
</svg>
